<svg id="back15s" xmlns="http://www.w3.org/2000/svg" viewBox="0 0 50 50"><title>back15s</title><path d="M35.79,21.93a11.54,11.54,0,0,0-9.29-7.47l.86-2L21.3,15.83l6.64,1.89-1.16-1.58a10,10,0,0,1,1.63,19.13,9.87,9.87,0,0,1-12.7-5.9,10,10,0,0,1,.7-8.39.81.81,0,0,0-.3-1.1.8.8,0,0,0-1.09.3,11.61,11.61,0,0,0-.82,9.75,11.5,11.5,0,1,0,21.58-8Z" fill="#189e98"/><path d="M22.29,23.67h0l-1.21.61-.21-1,1.6-.8h1v6.64H22.29Z" fill="#189e98"/><path d="M29.29,23.57H26.75l-.19,1.33a3.28,3.28,0,0,1,.48,0,2.92,2.92,0,0,1,1.6.43A1.91,1.91,0,0,1,29.5,27a2.42,2.42,0,0,1-2.67,2.3,3.78,3.78,0,0,1-1.75-.39l.25-.95a3.33,3.33,0,0,0,1.45.35,1.29,1.29,0,0,0,1.43-1.22c0-.76-.56-1.26-1.88-1.26a5.74,5.74,0,0,0-.9.06l.44-3.35h3.41Z" fill="#189e98"/></svg>