<svg xmlns="http://www.w3.org/2000/svg" viewBox="0 0 50 50"><title>circle-pause</title><g id="circle"><path d="M25,40A15,15,0,1,1,40,25,15,15,0,0,1,25,40Zm0-29A14,14,0,1,0,39,25,14,14,0,0,0,25,11Z" fill="#189e98"/></g><g id="pause"><path d="M23.45,19.86h-.77a.26.26,0,0,0-.26.28v9.71a.26.26,0,0,0,.26.28h.77a.26.26,0,0,0,.26-.28V20.14A.26.26,0,0,0,23.45,19.86Z" fill="#189e98"/><path d="M27.32,19.86h-.77a.26.26,0,0,0-.26.28v9.71a.26.26,0,0,0,.26.28h.77a.26.26,0,0,0,.26-.28V20.14A.26.26,0,0,0,27.32,19.86Z" fill="#189e98"/></g></svg>