<svg xmlns="http://www.w3.org/2000/svg" viewBox="0 0 50 50">
    <title>circle-play-pause</title>
    <g class="circle">
        <path d="M25,39.5A14.5,14.5,0,1,1,39.5,25,14.52,14.52,0,0,1,25,39.5Z" fill="#189e98" />
    </g>
    <g class="ring">
        <path d="M25,40A15,15,0,1,1,40,25,15,15,0,0,1,25,40Zm0-29A14,14,0,1,0,39,25,14,14,0,0,0,25,11Z" fill="#fff" />
    </g>
    <g class="play">
        <path d="M20.79,20.15v9.7a.3.3,0,0,0,.44.26l9.67-4.81a.34.34,0,0,0,0-.62l-9.67-4.78A.3.3,0,0,0,20.79,20.15Z" fill="#fff" />
    </g>
    <g class="pause">
        <path d="M23.45,19.86h-.77a.26.26,0,0,0-.26.28v9.71a.26.26,0,0,0,.26.28h.77a.26.26,0,0,0,.26-.28V20.14A.26.26,0,0,0,23.45,19.86Z" fill="#fff" />
        <path d="M27.32,19.86h-.77a.26.26,0,0,0-.26.28v9.71a.26.26,0,0,0,.26.28h.77a.26.26,0,0,0,.26-.28V20.14A.26.26,0,0,0,27.32,19.86Z" fill="#fff" />
    </g>
</svg>