<svg id="hamburger" xmlns="http://www.w3.org/2000/svg" viewBox="0 0 50 50"><title>hamburger</title><path d="M35,25.74V24.26a.51.51,0,0,0-.55-.5H15.55a.51.51,0,0,0-.55.5v1.49a.51.51,0,0,0,.55.5h18.9A.51.51,0,0,0,35,25.74Z" fill="#189e98"/><path d="M35,34.5V33a.51.51,0,0,0-.55-.5H15.55A.51.51,0,0,0,15,33V34.5a.51.51,0,0,0,.55.5h18.9A.51.51,0,0,0,35,34.5Z" fill="#189e98"/><path d="M35,17V15.5a.51.51,0,0,0-.55-.5H15.55a.51.51,0,0,0-.55.5V17a.51.51,0,0,0,.55.5h18.9A.51.51,0,0,0,35,17Z" fill="#189e98"/></svg>