<svg id="skip" xmlns="http://www.w3.org/2000/svg" viewBox="0 0 50 50"><title>skip</title><path d="M25.08,23l-7.93-7.87a.56.56,0,0,0-.79,0l-1.19,1.18a.56.56,0,0,0,0,.79L23.09,25l-7.93,7.87a.56.56,0,0,0,0,.79l1.19,1.18a.57.57,0,0,0,.79,0L25.08,27l1.19-1.18a1.11,1.11,0,0,0,0-1.57Z" fill="#189e98"/><path d="M33.48,23l-7.93-7.87a.56.56,0,0,0-.79,0l-1.19,1.18a.56.56,0,0,0,0,.79L31.49,25l-7.93,7.87a.56.56,0,0,0,0,.79l1.19,1.18a.57.57,0,0,0,.79,0L33.48,27l1.19-1.18a1.11,1.11,0,0,0,0-1.57Z" fill="#189e98"/></svg>