<svg id="play-pause" xmlns="http://www.w3.org/2000/svg" viewBox="0 0 50 50">
    <g class="pause">
    	<path d="M20.5,13H18.25a.69.69,0,0,0-.75.66V36.34a.69.69,0,0,0,.75.66H20.5a.69.69,0,0,0,.75-.66V13.66A.69.69,0,0,0,20.5,13Z" fill="#189e98" />
    	<path d="M31.75,13H29.5a.69.69,0,0,0-.75.66V36.34a.69.69,0,0,0,.75.66h2.25a.69.69,0,0,0,.75-.66V13.66A.69.69,0,0,0,31.75,13Z" fill="#189e98" />
    </g>
    <path class="play" d="M15,15.56V34.44a.58.58,0,0,0,.85.5l18.78-9.36a.67.67,0,0,0,0-1.2L15.85,15.06A.58.58,0,0,0,15,15.56Z" fill="#189e98"/>
</svg>