<svg id="previous" xmlns="http://www.w3.org/2000/svg" viewBox="0 0 50 50"><title>previous</title><path d="M24.92,27l7.93,7.87a.56.56,0,0,0,.79,0l1.19-1.18a.56.56,0,0,0,0-.79L26.91,25l7.93-7.87a.56.56,0,0,0,0-.79l-1.19-1.18a.57.57,0,0,0-.79,0L24.92,23l-1.19,1.18a1.11,1.11,0,0,0,0,1.57Z" fill="#189e98"/><path d="M16.52,27l7.93,7.87a.56.56,0,0,0,.79,0l1.19-1.18a.56.56,0,0,0,0-.79L18.51,25l7.93-7.87a.56.56,0,0,0,0-.79l-1.19-1.18a.57.57,0,0,0-.79,0L16.52,23l-1.19,1.18a1.11,1.11,0,0,0,0,1.57Z" fill="#189e98"/></svg>