<svg id="skip15s" xmlns="http://www.w3.org/2000/svg" viewBox="0 0 50 50"><title>skip15s</title><path d="M14.15,21.93a11.59,11.59,0,0,1,9.34-7.47l-.86-2,6.09,3.33L22,17.72l1.17-1.58a10,10,0,0,0-1.64,19.13A10,10,0,0,0,33.63,21a.81.81,0,1,1,1.4-.8,11.56,11.56,0,1,1-20.87,1.76Z" fill="#189e98"/><path d="M22.27,23.67h0L21,24.28l-.21-1,1.61-.8h1.05v6.64H22.27Z" fill="#189e98"/><path d="M29.31,23.57H26.76l-.19,1.33a3.31,3.31,0,0,1,.48,0,3,3,0,0,1,1.61.43A1.9,1.9,0,0,1,29.53,27a2.42,2.42,0,0,1-2.68,2.3,3.81,3.81,0,0,1-1.76-.39l.26-.95a3.36,3.36,0,0,0,1.46.35,1.29,1.29,0,0,0,1.44-1.22c0-.76-.56-1.26-1.89-1.26a5.81,5.81,0,0,0-.91.06l.44-3.35h3.43Z" fill="#189e98"/></svg>